{
  "accessors": [
    {
      "bufferView": 2,
      "componentType": 5126,
      "count": 3787,
      "max": [
        57.5177001953125,
        28.040000915527344,
        189.49139404296875
      ],
      "min": [
        -66.849899291992188,
        -22.447299957275391,
        -0.19650000333786011
      ],
      "type": "VEC3"
    },
    {
      "bufferView": 2,
      "byteOffset": 45444,
      "componentType": 5126,
      "count": 3787,
      "max": [
        0.99841320514678955,
        1,
        0.99953728914260864
      ],
      "min": [
        -0.99903762340545654,
        -1,
        -0.99824559688568115
      ],
      "type": "VEC3"
    },
    {
      "bufferView": 3,
      "componentType": 5126,
      "count": 3787,
      "max": [
        0.99980521202087402,
        0.99928802251815796,
        0.99999880790710449,
        1
      ],
      "min": [
        -1,
        -0.99960386753082275,
        -0.99999880790710449,
        -1
      ],
      "type": "VEC4"
    },
    {
      "bufferView": 1,
      "componentType": 5126,
      "count": 3787,
      "max": [
        0.98479998111724854,
        0.98489999771118164
      ],
      "min": [
        0.0062000001780688763,
        0.011699999682605267
      ],
      "type": "VEC2"
    },
    {
      "bufferView": 0,
      "componentType": 5125,
      "count": 17391,
      "max": [
        3786
      ],
      "min": [
        0
      ],
      "type": "SCALAR"
    }
  ],
  "asset": {
    "extras": {
      "author": "martinyay (https://sketchfab.com/martinyay)",
      "license": "CC-BY-4.0 (http://creativecommons.org/licenses/by/4.0/)",
      "source": "https://sketchfab.com/3d-models/pc-computer-league-of-legends-ezreal-arcade-e6db43a910684254bb38867058799f21",
      "title": "PC Computer - League Of Legends - Ezreal Arcade"
    },
    "generator": "Sketchfab-7.13.0",
    "version": "2.0"
  },
  "bufferViews": [
    {
      "buffer": 0,
      "byteLength": 69564,
      "byteOffset": 0,
      "name": "floatBufferViews",
      "target": 34963
    },
    {
      "buffer": 0,
      "byteLength": 30296,
      "byteOffset": 69564,
      "byteStride": 8,
      "name": "floatBufferViews",
      "target": 34962
    },
    {
      "buffer": 0,
      "byteLength": 90888,
      "byteOffset": 99860,
      "byteStride": 12,
      "name": "floatBufferViews",
      "target": 34962
    },
    {
      "buffer": 0,
      "byteLength": 60592,
      "byteOffset": 190748,
      "byteStride": 16,
      "name": "floatBufferViews",
      "target": 34962
    }
  ],
  "buffers": [
    {
      "byteLength": 251340,
      "uri": "scene.bin"
    }
  ],
  "images": [
    {
      "uri": "textures/01default_baseColor.png"
    }
  ],
  "materials": [
    {
      "doubleSided": true,
      "emissiveFactor": [
        0,
        0,
        0
      ],
      "emissiveTexture": {
        "index": 0,
        "texCoord": 0
      },
      "name": "01default",
      "pbrMetallicRoughness": {
        "baseColorFactor": [
          1,
          1,
          1,
          1
        ],
        "baseColorTexture": {
          "index": 0,
          "texCoord": 0
        },
        "metallicFactor": 0,
        "roughnessFactor": 1
      }
    }
  ],
  "meshes": [
    {
      "primitives": [
        {
          "attributes": {
            "NORMAL": 1,
            "POSITION": 0,
            "TANGENT": 2,
            "TEXCOORD_0": 3
          },
          "indices": 4,
          "material": 0,
          "mode": 4
        }
      ]
    }
  ],
  "nodes": [
    {
      "children": [
        1
      ],
      "name": "RootNode (gltf orientation matrix)",
      "rotation": [
        -0.70710678118654746,
        -0,
        -0,
        0.70710678118654757
      ]
    },
    {
      "children": [
        2
      ],
      "name": "RootNode (model correction matrix)"
    },
    {
      "children": [
        3
      ],
      "name": "Ezreal Arcade.obj.cleaner.materialmerger.gles"
    },
    {
      "mesh": 0,
      "name": ""
    }
  ],
  "samplers": [
    {
      "magFilter": 9729,
      "minFilter": 9987,
      "wrapS": 10497,
      "wrapT": 10497
    }
  ],
  "scene": 0,
  "scenes": [
    {
      "name": "OSG_Scene",
      "nodes": [
        0
      ]
    }
  ],
  "textures": [
    {
      "sampler": 0,
      "source": 0
    }
  ]
}

