{
  "accessors": [
    {
      "bufferView": 2,
      "componentType": 5126,
      "count": 370,
      "max": [
        78.176605224609375,
        16.187843322753906,
        77.715728759765625
      ],
      "min": [
        -78.176620483398438,
        0.17163504660129547,
        -78.1766357421875
      ],
      "type": "VEC3"
    },
    {
      "bufferView": 2,
      "byteOffset": 4440,
      "componentType": 5126,
      "count": 370,
      "max": [
        1,
        1,
        0.98754310607910156
      ],
      "min": [
        -1,
        -1,
        -0.99311494827270508
      ],
      "type": "VEC3"
    },
    {
      "bufferView": 1,
      "componentType": 5126,
      "count": 370,
      "max": [
        0.97578400373458862,
        0.9790949821472168
      ],
      "min": [
        0.014890000224113464,
        0.022321000695228577
      ],
      "type": "VEC2"
    },
    {
      "bufferView": 1,
      "byteOffset": 2960,
      "componentType": 5126,
      "count": 370,
      "max": [
        0.97578400373458862,
        0.9790949821472168
      ],
      "min": [
        0.014890000224113464,
        0.022321000695228577
      ],
      "type": "VEC2"
    },
    {
      "bufferView": 0,
      "componentType": 5125,
      "count": 828,
      "max": [
        369
      ],
      "min": [
        0
      ],
      "type": "SCALAR"
    },
    {
      "bufferView": 2,
      "byteOffset": 8880,
      "componentType": 5126,
      "count": 10680,
      "max": [
        46.490806579589844,
        230.51170349121094,
        26.333459854125977
      ],
      "min": [
        -60.253265380859375,
        11.772051811218262,
        -67.892860412597656
      ],
      "type": "VEC3"
    },
    {
      "bufferView": 2,
      "byteOffset": 137040,
      "componentType": 5126,
      "count": 10680,
      "max": [
        0.99989122152328491,
        0.99968349933624268,
        0.99989736080169678
      ],
      "min": [
        -0.99964755773544312,
        -0.99819600582122803,
        -0.99997788667678833
      ],
      "type": "VEC3"
    },
    {
      "bufferView": 1,
      "byteOffset": 5920,
      "componentType": 5126,
      "count": 10680,
      "max": [
        0.99658197164535522,
        0.99443298578262329
      ],
      "min": [
        0.0044909999705851078,
        0.0061349999159574509
      ],
      "type": "VEC2"
    },
    {
      "bufferView": 1,
      "byteOffset": 91360,
      "componentType": 5126,
      "count": 10680,
      "max": [
        0.99658197164535522,
        0.99443298578262329
      ],
      "min": [
        0.0044909999705851078,
        0.0061349999159574509
      ],
      "type": "VEC2"
    },
    {
      "bufferView": 0,
      "byteOffset": 3312,
      "componentType": 5125,
      "count": 34533,
      "max": [
        10679
      ],
      "min": [
        0
      ],
      "type": "SCALAR"
    },
    {
      "bufferView": 2,
      "byteOffset": 265200,
      "componentType": 5126,
      "count": 114,
      "max": [
        11.64891242980957,
        170.99221801757812,
        5.0682306289672852
      ],
      "min": [
        -32.896953582763672,
        152.24191284179688,
        -13.033176422119141
      ],
      "type": "VEC3"
    },
    {
      "bufferView": 2,
      "byteOffset": 266568,
      "componentType": 5126,
      "count": 114,
      "max": [
        0.95389324426651001,
        0.99063372611999512,
        0.97847330570220947
      ],
      "min": [
        -0.95389324426651001,
        -0.77386051416397095,
        -0.97488278150558472
      ],
      "type": "VEC3"
    },
    {
      "bufferView": 1,
      "byteOffset": 176800,
      "componentType": 5126,
      "count": 114,
      "max": [
        0.65427601337432861,
        0.82730197906494141
      ],
      "min": [
        0.50525802373886108,
        0.7708280086517334
      ],
      "type": "VEC2"
    },
    {
      "bufferView": 0,
      "byteOffset": 141444,
      "componentType": 5125,
      "count": 408,
      "max": [
        113
      ],
      "min": [
        0
      ],
      "type": "SCALAR"
    },
    {
      "bufferView": 2,
      "byteOffset": 267936,
      "componentType": 5126,
      "count": 240,
      "max": [
        -4.5602822303771973,
        181.4227294921875,
        8.7168807983398438
      ],
      "min": [
        -18.38917350769043,
        166.02119445800781,
        -3.5718176364898682
      ],
      "type": "VEC3"
    },
    {
      "bufferView": 2,
      "byteOffset": 270816,
      "componentType": 5126,
      "count": 240,
      "max": [
        0.9853057861328125,
        0.57528883218765259,
        0.99900722503662109
      ],
      "min": [
        -0.98532700538635254,
        -0.57162284851074219,
        -0.99918854236602783
      ],
      "type": "VEC3"
    },
    {
      "bufferView": 1,
      "byteOffset": 177712,
      "componentType": 5126,
      "count": 240,
      "max": [
        0.81417500972747803,
        0.47424900531768799
      ],
      "min": [
        0.67562401294708252,
        0.35559400916099548
      ],
      "type": "VEC2"
    },
    {
      "bufferView": 0,
      "byteOffset": 143076,
      "componentType": 5125,
      "count": 1122,
      "max": [
        239
      ],
      "min": [
        0
      ],
      "type": "SCALAR"
    }
  ],
  "asset": {
    "extras": {
      "author": "Yoru Skins (https://sketchfab.com/IMChangkyun)",
      "license": "CC-BY-4.0 (http://creativecommons.org/licenses/by/4.0/)",
      "source": "https://sketchfab.com/3d-models/enlightened-sorceress-karma-lol-custom-skin-034c9725eb5f40fe8aaaf60fe80bca97",
      "title": "Enlightened Sorceress Karma [LoL custom skin]"
    },
    "generator": "Sketchfab-9.41.1",
    "version": "2.0"
  },
  "bufferViews": [
    {
      "buffer": 0,
      "byteLength": 147564,
      "byteOffset": 0,
      "name": "floatBufferViews",
      "target": 34963
    },
    {
      "buffer": 0,
      "byteLength": 179632,
      "byteOffset": 147564,
      "byteStride": 8,
      "name": "floatBufferViews",
      "target": 34962
    },
    {
      "buffer": 0,
      "byteLength": 273696,
      "byteOffset": 327196,
      "byteStride": 12,
      "name": "floatBufferViews",
      "target": 34962
    }
  ],
  "buffers": [
    {
      "byteLength": 600892,
      "uri": "scene.bin"
    }
  ],
  "extensionsUsed": [
    "KHR_materials_unlit"
  ],
  "images": [
    {
      "uri": "textures/Podium_lambert4SG1_baseColor.png"
    },
    {
      "uri": "textures/karma_karma1_baseColor.png"
    }
  ],
  "materials": [
    {
      "doubleSided": true,
      "emissiveFactor": [
        0,
        0,
        0
      ],
      "extensions": {
        "KHR_materials_unlit": {}
      },
      "name": "Podium_lambert4SG1",
      "pbrMetallicRoughness": {
        "baseColorFactor": [
          1,
          1,
          1,
          1
        ],
        "baseColorTexture": {
          "index": 0,
          "texCoord": 0
        },
        "metallicFactor": 0,
        "roughnessFactor": 1
      }
    },
    {
      "doubleSided": true,
      "extensions": {
        "KHR_materials_unlit": {}
      },
      "name": "karma_karma1",
      "pbrMetallicRoughness": {
        "baseColorFactor": [
          1,
          1,
          1,
          1
        ],
        "baseColorTexture": {
          "index": 1,
          "texCoord": 0
        },
        "metallicFactor": 0,
        "roughnessFactor": 1
      }
    },
    {
      "alphaMode": "BLEND",
      "doubleSided": true,
      "emissiveFactor": [
        0,
        0,
        0
      ],
      "extensions": {
        "KHR_materials_unlit": {}
      },
      "name": "Armparts",
      "pbrMetallicRoughness": {
        "baseColorFactor": [
          1,
          1,
          1,
          0.50783192112951103
        ],
        "baseColorTexture": {
          "index": 1,
          "texCoord": 0
        },
        "metallicFactor": 0,
        "roughnessFactor": 1
      }
    },
    {
      "alphaMode": "BLEND",
      "doubleSided": true,
      "emissiveFactor": [
        0,
        0,
        0
      ],
      "extensions": {
        "KHR_materials_unlit": {}
      },
      "name": "Mouthcover",
      "pbrMetallicRoughness": {
        "baseColorFactor": [
          1,
          1,
          1,
          0.33309838976484213
        ],
        "baseColorTexture": {
          "index": 1,
          "texCoord": 0
        },
        "metallicFactor": 0,
        "roughnessFactor": 1
      }
    }
  ],
  "meshes": [
    {
      "name": "Podium_Podium_pCylinder4_Podium_lambert4SG1_0",
      "primitives": [
        {
          "attributes": {
            "NORMAL": 1,
            "POSITION": 0,
            "TEXCOORD_0": 2,
            "TEXCOORD_1": 3
          },
          "indices": 4,
          "material": 0,
          "mode": 4
        }
      ]
    },
    {
      "name": "Podium_Podium_pCylinder4_karma_karma1_0",
      "primitives": [
        {
          "attributes": {
            "NORMAL": 6,
            "POSITION": 5,
            "TEXCOORD_0": 7,
            "TEXCOORD_1": 8
          },
          "indices": 9,
          "material": 1,
          "mode": 4
        }
      ]
    },
    {
      "name": "Podium_Podium_pCylinder4_Armparts_0",
      "primitives": [
        {
          "attributes": {
            "NORMAL": 11,
            "POSITION": 10,
            "TEXCOORD_0": 12
          },
          "indices": 13,
          "material": 2,
          "mode": 4
        }
      ]
    },
    {
      "name": "Podium_Podium_pCylinder4_Mouthcover_0",
      "primitives": [
        {
          "attributes": {
            "NORMAL": 15,
            "POSITION": 14,
            "TEXCOORD_0": 16
          },
          "indices": 17,
          "material": 3,
          "mode": 4
        }
      ]
    }
  ],
  "nodes": [
    {
      "children": [
        1
      ],
      "name": "RootNode (gltf orientation matrix)",
      "rotation": [
        -0.70710678118654746,
        -0,
        -0,
        0.70710678118654757
      ]
    },
    {
      "children": [
        2
      ],
      "name": "RootNode (model correction matrix)"
    },
    {
      "children": [
        3
      ],
      "matrix": [
        1,
        0,
        0,
        0,
        0,
        0,
        1,
        0,
        0,
        -1,
        0,
        0,
        0,
        0,
        0,
        1
      ],
      "name": "af4c703f44734d26b6c2e81dc7b59572.fbx"
    },
    {
      "children": [
        4
      ],
      "name": "RootNode"
    },
    {
      "children": [
        5,
        6,
        7,
        8
      ],
      "name": "Podium_Podium_pCylinder4"
    },
    {
      "mesh": 0,
      "name": "Podium_Podium_pCylinder4_Podium_lambert4SG1_0"
    },
    {
      "mesh": 1,
      "name": "Podium_Podium_pCylinder4_karma_karma1_0"
    },
    {
      "mesh": 2,
      "name": "Podium_Podium_pCylinder4_Armparts_0"
    },
    {
      "mesh": 3,
      "name": "Podium_Podium_pCylinder4_Mouthcover_0"
    }
  ],
  "samplers": [
    {
      "magFilter": 9729,
      "minFilter": 9987,
      "wrapS": 10497,
      "wrapT": 10497
    }
  ],
  "scene": 0,
  "scenes": [
    {
      "name": "OSG_Scene",
      "nodes": [
        0
      ]
    }
  ],
  "textures": [
    {
      "sampler": 0,
      "source": 0
    },
    {
      "sampler": 0,
      "source": 1
    }
  ]
}

