{
  "accessors": [
    {
      "bufferView": 2,
      "componentType": 5126,
      "count": 6529,
      "max": [
        27.199172973632812,
        225.61817932128906,
        54.456459045410156
      ],
      "min": [
        -36.326812744140625,
        32.95751953125,
        -59.194648742675781
      ],
      "type": "VEC3"
    },
    {
      "bufferView": 2,
      "byteOffset": 78348,
      "componentType": 5126,
      "count": 6529,
      "max": [
        0.99999821186065674,
        0.9997398853302002,
        0.9999958872795105
      ],
      "min": [
        -0.99999821186065674,
        -0.99993562698364258,
        -0.99986565113067627
      ],
      "type": "VEC3"
    },
    {
      "bufferView": 1,
      "componentType": 5126,
      "count": 6529,
      "max": [
        0.99658197164535522,
        0.99902302026748657
      ],
      "min": [
        0.0043950001709163189,
        0.0029299999587237835
      ],
      "type": "VEC2"
    },
    {
      "bufferView": 0,
      "componentType": 5125,
      "count": 28827,
      "max": [
        6528
      ],
      "min": [
        0
      ],
      "type": "SCALAR"
    },
    {
      "bufferView": 2,
      "byteOffset": 156696,
      "componentType": 5126,
      "count": 1068,
      "max": [
        70.975616455078125,
        223.78369140625,
        53.545661926269531
      ],
      "min": [
        -105.61810302734375,
        112.27427673339844,
        -57.619892120361328
      ],
      "type": "VEC3"
    },
    {
      "bufferView": 2,
      "byteOffset": 169512,
      "componentType": 5126,
      "count": 1068,
      "max": [
        1,
        1,
        0.99878478050231934
      ],
      "min": [
        -0.99999946355819702,
        -1,
        -0.99878489971160889
      ],
      "type": "VEC3"
    },
    {
      "bufferView": 1,
      "byteOffset": 52232,
      "componentType": 5126,
      "count": 1068,
      "max": [
        0.98566699028015137,
        0.97374802827835083
      ],
      "min": [
        0.14207200706005096,
        0.033266998827457428
      ],
      "type": "VEC2"
    },
    {
      "bufferView": 0,
      "byteOffset": 115308,
      "componentType": 5125,
      "count": 3792,
      "max": [
        1067
      ],
      "min": [
        0
      ],
      "type": "SCALAR"
    },
    {
      "bufferView": 2,
      "byteOffset": 182328,
      "componentType": 5126,
      "count": 817,
      "max": [
        84.390113830566406,
        103.43318176269531,
        -10.083919525146484
      ],
      "min": [
        -83.881591796875,
        14.144813537597656,
        -64.42962646484375
      ],
      "type": "VEC3"
    },
    {
      "bufferView": 2,
      "byteOffset": 192132,
      "componentType": 5126,
      "count": 817,
      "max": [
        0.98943287134170532,
        0.99964624643325806,
        0.99970090389251709
      ],
      "min": [
        -0.99677193164825439,
        -0.99962860345840454,
        -0.99802541732788086
      ],
      "type": "VEC3"
    },
    {
      "bufferView": 1,
      "byteOffset": 60776,
      "componentType": 5126,
      "count": 817,
      "max": [
        0.9974675178527832,
        0.99317598342895508
      ],
      "min": [
        0.0086298370733857155,
        0.14614641666412354
      ],
      "type": "VEC2"
    },
    {
      "bufferView": 0,
      "byteOffset": 130476,
      "componentType": 5125,
      "count": 3726,
      "max": [
        816
      ],
      "min": [
        0
      ],
      "type": "SCALAR"
    },
    {
      "bufferView": 2,
      "byteOffset": 201936,
      "componentType": 5126,
      "count": 142,
      "max": [
        38.582569122314453,
        -17.711580276489258,
        -22.892910003662109
      ],
      "min": [
        -26.384140014648438,
        -97.951637268066406,
        -52.692501068115234
      ],
      "type": "VEC3"
    },
    {
      "bufferView": 2,
      "byteOffset": 203640,
      "componentType": 5126,
      "count": 142,
      "max": [
        0.98748528957366943,
        0.98098582029342651,
        0.99348390102386475
      ],
      "min": [
        -0.96642869710922241,
        -0.95183300971984863,
        -0.97437459230422974
      ],
      "type": "VEC3"
    },
    {
      "bufferView": 1,
      "byteOffset": 67312,
      "componentType": 5126,
      "count": 142,
      "max": [
        0.56075519323348999,
        0.99126511812210083
      ],
      "min": [
        0.015194140374660492,
        0.017073750495910645
      ],
      "type": "VEC2"
    },
    {
      "bufferView": 1,
      "byteOffset": 68448,
      "componentType": 5126,
      "count": 142,
      "max": [
        0.56075519323348999,
        0.99126511812210083
      ],
      "min": [
        0.015194140374660492,
        0.017073750495910645
      ],
      "type": "VEC2"
    },
    {
      "bufferView": 0,
      "byteOffset": 145380,
      "componentType": 5125,
      "count": 720,
      "max": [
        141
      ],
      "min": [
        0
      ],
      "type": "SCALAR"
    },
    {
      "bufferView": 2,
      "byteOffset": 205344,
      "componentType": 5126,
      "count": 475,
      "max": [
        -6.286773681640625,
        263.4605712890625,
        -110.91458129882812
      ],
      "min": [
        -99.317291259765625,
        49.318313598632812,
        -126.02212524414062
      ],
      "type": "VEC3"
    },
    {
      "bufferView": 2,
      "byteOffset": 211044,
      "componentType": 5126,
      "count": 475,
      "max": [
        0.99970561265945435,
        0.99844104051589966,
        0.99999982118606567
      ],
      "min": [
        -0.99976903200149536,
        -0.99893307685852051,
        -0.99999982118606567
      ],
      "type": "VEC3"
    },
    {
      "bufferView": 1,
      "byteOffset": 69584,
      "componentType": 5126,
      "count": 475,
      "max": [
        0.99626302719116211,
        0.99350899457931519
      ],
      "min": [
        0.52086097002029419,
        0.0087339878082275391
      ],
      "type": "VEC2"
    },
    {
      "bufferView": 0,
      "byteOffset": 148260,
      "componentType": 5125,
      "count": 2448,
      "max": [
        474
      ],
      "min": [
        0
      ],
      "type": "SCALAR"
    },
    {
      "bufferView": 2,
      "byteOffset": 216744,
      "componentType": 5126,
      "count": 1605,
      "max": [
        136.40939331054688,
        88.289405822753906,
        171.83724975585938
      ],
      "min": [
        -98.783203125,
        -33.28216552734375,
        -41.973285675048828
      ],
      "type": "VEC3"
    },
    {
      "bufferView": 2,
      "byteOffset": 236004,
      "componentType": 5126,
      "count": 1605,
      "max": [
        0.99610912799835205,
        0.99945759773254395,
        0.99984389543533325
      ],
      "min": [
        -0.99784350395202637,
        -0.99500459432601929,
        -0.99954372644424438
      ],
      "type": "VEC3"
    },
    {
      "bufferView": 1,
      "byteOffset": 73384,
      "componentType": 5126,
      "count": 1605,
      "max": [
        0.99159997701644897,
        0.98960000276565552
      ],
      "min": [
        0.0090999994426965714,
        0.008899986743927002
      ],
      "type": "VEC2"
    },
    {
      "bufferView": 1,
      "byteOffset": 86224,
      "componentType": 5126,
      "count": 1605,
      "max": [
        0.99159997701644897,
        0.98960000276565552
      ],
      "min": [
        0.0090999994426965714,
        0.008899986743927002
      ],
      "type": "VEC2"
    },
    {
      "bufferView": 0,
      "byteOffset": 158052,
      "componentType": 5125,
      "count": 7089,
      "max": [
        1604
      ],
      "min": [
        0
      ],
      "type": "SCALAR"
    },
    {
      "bufferView": 2,
      "byteOffset": 255264,
      "componentType": 5126,
      "count": 397,
      "max": [
        77.43017578125,
        118.41777801513672,
        -16.427986145019531
      ],
      "min": [
        -89.19287109375,
        11.883285522460938,
        -102.13032531738281
      ],
      "type": "VEC3"
    },
    {
      "bufferView": 2,
      "byteOffset": 260028,
      "componentType": 5126,
      "count": 397,
      "max": [
        0.99975675344467163,
        0.99387103319168091,
        0.99829310178756714
      ],
      "min": [
        -0.99973499774932861,
        -0.99552804231643677,
        -0.99775779247283936
      ],
      "type": "VEC3"
    },
    {
      "bufferView": 1,
      "byteOffset": 99064,
      "componentType": 5126,
      "count": 397,
      "max": [
        0.62273800373077393,
        0.95183402299880981
      ],
      "min": [
        0.27583998441696167,
        0.0088289976119995117
      ],
      "type": "VEC2"
    },
    {
      "bufferView": 0,
      "byteOffset": 186408,
      "componentType": 5125,
      "count": 1518,
      "max": [
        396
      ],
      "min": [
        0
      ],
      "type": "SCALAR"
    },
    {
      "bufferView": 2,
      "byteOffset": 264792,
      "componentType": 5126,
      "count": 1122,
      "max": [
        22.385795593261719,
        97.392524719238281,
        -30.7965087890625
      ],
      "min": [
        -32.352958679199219,
        14.309701919555664,
        -51.148250579833984
      ],
      "type": "VEC3"
    },
    {
      "bufferView": 2,
      "byteOffset": 278256,
      "componentType": 5126,
      "count": 1122,
      "max": [
        0.99982285499572754,
        0.98981714248657227,
        0.99814796447753906
      ],
      "min": [
        -0.99917721748352051,
        -0.99875932931900024,
        -0.99992799758911133
      ],
      "type": "VEC3"
    },
    {
      "bufferView": 1,
      "byteOffset": 102240,
      "componentType": 5126,
      "count": 1122,
      "max": [
        0.98999989032745361,
        0.99029999971389771
      ],
      "min": [
        0.014100000262260437,
        0.024699989706277847
      ],
      "type": "VEC2"
    },
    {
      "bufferView": 1,
      "byteOffset": 111216,
      "componentType": 5126,
      "count": 1122,
      "max": [
        0.98999989032745361,
        0.99029999971389771
      ],
      "min": [
        0.014100000262260437,
        0.024699989706277847
      ],
      "type": "VEC2"
    },
    {
      "bufferView": 0,
      "byteOffset": 192480,
      "componentType": 5125,
      "count": 5028,
      "max": [
        1121
      ],
      "min": [
        0
      ],
      "type": "SCALAR"
    },
    {
      "bufferView": 2,
      "byteOffset": 291720,
      "componentType": 5126,
      "count": 210,
      "max": [
        102.70563507080078,
        21.267011642456055,
        101.51913452148438
      ],
      "min": [
        -102.70565795898438,
        0.22548800706863403,
        -102.70568084716797
      ],
      "type": "VEC3"
    },
    {
      "bufferView": 2,
      "byteOffset": 294240,
      "componentType": 5126,
      "count": 210,
      "max": [
        0.98754298686981201,
        1,
        0.98754310607910156
      ],
      "min": [
        -0.98754376173019409,
        -1,
        -0.99311500787734985
      ],
      "type": "VEC3"
    },
    {
      "bufferView": 1,
      "byteOffset": 120192,
      "componentType": 5126,
      "count": 210,
      "max": [
        1.0004589557647705,
        0.93951398134231567
      ],
      "min": [
        -0.00015100000018719584,
        0.0042539997957646847
      ],
      "type": "VEC2"
    },
    {
      "bufferView": 0,
      "byteOffset": 212592,
      "componentType": 5125,
      "count": 480,
      "max": [
        209
      ],
      "min": [
        0
      ],
      "type": "SCALAR"
    }
  ],
  "asset": {
    "extras": {
      "author": "Yoru Skins (https://sketchfab.com/IMChangkyun)",
      "license": "CC-BY-NC-4.0 (http://creativecommons.org/licenses/by-nc/4.0/)",
      "source": "https://sketchfab.com/3d-models/skintober-2020-day-4-psyops-akali-1c381b01ec0149338669adf2723a6e08",
      "title": "Skintober 2020 Day 4: Psyops Akali"
    },
    "generator": "Sketchfab-9.41.1",
    "version": "2.0"
  },
  "bufferViews": [
    {
      "buffer": 0,
      "byteLength": 214512,
      "byteOffset": 0,
      "name": "floatBufferViews",
      "target": 34963
    },
    {
      "buffer": 0,
      "byteLength": 121872,
      "byteOffset": 214512,
      "byteStride": 8,
      "name": "floatBufferViews",
      "target": 34962
    },
    {
      "buffer": 0,
      "byteLength": 296760,
      "byteOffset": 336384,
      "byteStride": 12,
      "name": "floatBufferViews",
      "target": 34962
    }
  ],
  "buffers": [
    {
      "byteLength": 633144,
      "uri": "scene.bin"
    }
  ],
  "extensionsUsed": [
    "KHR_materials_unlit"
  ],
  "images": [
    {
      "uri": "textures/Body_baseColor.png"
    },
    {
      "uri": "textures/Weapons_baseColor.png"
    },
    {
      "uri": "textures/Pumpkinhead_Fiddlesticks_baseColor.png"
    },
    {
      "uri": "textures/Zombie_Brand_baseColor.png"
    },
    {
      "uri": "textures/Yorick_baseColor.png"
    },
    {
      "uri": "textures/Haunted_Zyra_Plants_baseColor.png"
    },
    {
      "uri": "textures/Haunted_Maokai_baseColor.png"
    },
    {
      "uri": "textures/Haunted_Zyra_Vines_baseColor.png"
    },
    {
      "uri": "textures/Podium_baseColor.png"
    }
  ],
  "materials": [
    {
      "doubleSided": true,
      "emissiveFactor": [
        0,
        0,
        0
      ],
      "extensions": {
        "KHR_materials_unlit": {}
      },
      "name": "Body",
      "pbrMetallicRoughness": {
        "baseColorFactor": [
          1,
          1,
          1,
          1
        ],
        "baseColorTexture": {
          "index": 0,
          "texCoord": 0
        },
        "metallicFactor": 0,
        "roughnessFactor": 1
      }
    },
    {
      "doubleSided": true,
      "extensions": {
        "KHR_materials_unlit": {}
      },
      "name": "Weapons",
      "pbrMetallicRoughness": {
        "baseColorFactor": [
          1,
          1,
          1,
          1
        ],
        "baseColorTexture": {
          "index": 1,
          "texCoord": 0
        },
        "metallicFactor": 0,
        "roughnessFactor": 1
      }
    },
    {
      "doubleSided": true,
      "emissiveFactor": [
        0,
        0,
        0
      ],
      "extensions": {
        "KHR_materials_unlit": {}
      },
      "name": "Pumpkinhead_Fiddlesticks",
      "pbrMetallicRoughness": {
        "baseColorFactor": [
          1,
          1,
          1,
          1
        ],
        "baseColorTexture": {
          "index": 2,
          "texCoord": 0
        },
        "metallicFactor": 0,
        "roughnessFactor": 1
      }
    },
    {
      "doubleSided": true,
      "emissiveFactor": [
        0,
        0,
        0
      ],
      "extensions": {
        "KHR_materials_unlit": {}
      },
      "name": "Zombie_Brand",
      "pbrMetallicRoughness": {
        "baseColorFactor": [
          1,
          1,
          1,
          1
        ],
        "baseColorTexture": {
          "index": 3,
          "texCoord": 0
        },
        "metallicFactor": 0,
        "roughnessFactor": 1
      }
    },
    {
      "doubleSided": true,
      "emissiveFactor": [
        0,
        0,
        0
      ],
      "extensions": {
        "KHR_materials_unlit": {}
      },
      "name": "Yorick",
      "pbrMetallicRoughness": {
        "baseColorFactor": [
          1,
          1,
          1,
          1
        ],
        "baseColorTexture": {
          "index": 4,
          "texCoord": 0
        },
        "metallicFactor": 0,
        "roughnessFactor": 1
      }
    },
    {
      "doubleSided": true,
      "emissiveFactor": [
        0,
        0,
        0
      ],
      "extensions": {
        "KHR_materials_unlit": {}
      },
      "name": "Haunted_Zyra_Plants",
      "pbrMetallicRoughness": {
        "baseColorFactor": [
          1,
          1,
          1,
          1
        ],
        "baseColorTexture": {
          "index": 5,
          "texCoord": 0
        },
        "metallicFactor": 0,
        "roughnessFactor": 1
      }
    },
    {
      "doubleSided": true,
      "emissiveFactor": [
        0,
        0,
        0
      ],
      "extensions": {
        "KHR_materials_unlit": {}
      },
      "name": "Haunted_Maokai",
      "pbrMetallicRoughness": {
        "baseColorFactor": [
          1,
          1,
          1,
          1
        ],
        "baseColorTexture": {
          "index": 6,
          "texCoord": 0
        },
        "metallicFactor": 0,
        "roughnessFactor": 1
      }
    },
    {
      "doubleSided": true,
      "emissiveFactor": [
        0,
        0,
        0
      ],
      "extensions": {
        "KHR_materials_unlit": {}
      },
      "name": "Haunted_Zyra_Vines",
      "pbrMetallicRoughness": {
        "baseColorFactor": [
          1,
          1,
          1,
          1
        ],
        "baseColorTexture": {
          "index": 7,
          "texCoord": 0
        },
        "metallicFactor": 0,
        "roughnessFactor": 1
      }
    },
    {
      "doubleSided": true,
      "emissiveFactor": [
        0,
        0,
        0
      ],
      "extensions": {
        "KHR_materials_unlit": {}
      },
      "name": "Podium",
      "pbrMetallicRoughness": {
        "baseColorFactor": [
          1,
          1,
          1,
          1
        ],
        "baseColorTexture": {
          "index": 8,
          "texCoord": 0
        },
        "metallicFactor": 0,
        "roughnessFactor": 1
      }
    }
  ],
  "meshes": [
    {
      "name": "posed_Mesh_Body_0",
      "primitives": [
        {
          "attributes": {
            "NORMAL": 1,
            "POSITION": 0,
            "TEXCOORD_0": 2
          },
          "indices": 3,
          "material": 0,
          "mode": 4
        }
      ]
    },
    {
      "name": "posed_Mesh_Weapons_0",
      "primitives": [
        {
          "attributes": {
            "NORMAL": 5,
            "POSITION": 4,
            "TEXCOORD_0": 6
          },
          "indices": 7,
          "material": 1,
          "mode": 4
        }
      ]
    },
    {
      "name": "transformfiddlesticks_skin04_fiddlesticksrework_Pumpkinhead_Fiddlesticks_0",
      "primitives": [
        {
          "attributes": {
            "NORMAL": 9,
            "POSITION": 8,
            "TEXCOORD_0": 10
          },
          "indices": 11,
          "material": 2,
          "mode": 4
        }
      ]
    },
    {
      "name": "stone_Mesh_Zombie_Brand_0",
      "primitives": [
        {
          "attributes": {
            "NORMAL": 13,
            "POSITION": 12,
            "TEXCOORD_0": 14,
            "TEXCOORD_1": 15
          },
          "indices": 16,
          "material": 3,
          "mode": 4
        }
      ]
    },
    {
      "name": "transformyorick_Yorick_0",
      "primitives": [
        {
          "attributes": {
            "NORMAL": 18,
            "POSITION": 17,
            "TEXCOORD_0": 19
          },
          "indices": 20,
          "material": 4,
          "mode": 4
        }
      ]
    },
    {
      "name": "zyragrave_Mesh_Haunted_Zyra_Plants_0",
      "primitives": [
        {
          "attributes": {
            "NORMAL": 22,
            "POSITION": 21,
            "TEXCOORD_0": 23,
            "TEXCOORD_1": 24
          },
          "indices": 25,
          "material": 5,
          "mode": 4
        }
      ]
    },
    {
      "name": "transformmaokai_gravedigger2_Haunted_Maokai_0",
      "primitives": [
        {
          "attributes": {
            "NORMAL": 27,
            "POSITION": 26,
            "TEXCOORD_0": 28
          },
          "indices": 29,
          "material": 6,
          "mode": 4
        }
      ]
    },
    {
      "name": "zyra_Mesh2_Haunted_Zyra_Vines_0",
      "primitives": [
        {
          "attributes": {
            "NORMAL": 31,
            "POSITION": 30,
            "TEXCOORD_0": 32,
            "TEXCOORD_1": 33
          },
          "indices": 34,
          "material": 7,
          "mode": 4
        }
      ]
    },
    {
      "name": "Podium_only_Podium_only_Podium_Podium_pCylinder3_Podium_0",
      "primitives": [
        {
          "attributes": {
            "NORMAL": 36,
            "POSITION": 35,
            "TEXCOORD_0": 37
          },
          "indices": 38,
          "material": 8,
          "mode": 4
        }
      ]
    }
  ],
  "nodes": [
    {
      "children": [
        1
      ],
      "name": "RootNode (gltf orientation matrix)",
      "rotation": [
        -0.70710678118654746,
        -0,
        -0,
        0.70710678118654757
      ]
    },
    {
      "children": [
        2
      ],
      "name": "RootNode (model correction matrix)"
    },
    {
      "children": [
        3
      ],
      "matrix": [
        1,
        0,
        0,
        0,
        0,
        0,
        1,
        0,
        0,
        -1,
        0,
        0,
        0,
        0,
        0,
        1
      ],
      "name": "3b0b8524eec94340ab2a363435e98e28.fbx"
    },
    {
      "children": [
        4,
        7,
        9,
        11,
        13,
        15,
        17,
        19
      ],
      "name": "RootNode"
    },
    {
      "children": [
        5,
        6
      ],
      "matrix": [
        1.0941863059997559,
        0,
        0,
        0,
        0,
        1.0941863059997559,
        0,
        0,
        0,
        0,
        1.0941863059997559,
        0,
        10.833664894104004,
        -6.5944046974182129,
        20.896829605102539,
        1
      ],
      "name": "posed_Mesh"
    },
    {
      "mesh": 0,
      "name": "posed_Mesh_Body_0"
    },
    {
      "mesh": 1,
      "name": "posed_Mesh_Weapons_0"
    },
    {
      "children": [
        8
      ],
      "matrix": [
        1,
        0,
        0,
        0,
        0,
        1,
        0,
        0,
        0,
        0,
        1,
        0,
        5.3249106407165527,
        0,
        36.150234222412109,
        1
      ],
      "name": "transformfiddlesticks_skin04_fiddlesticksrework"
    },
    {
      "mesh": 2,
      "name": "transformfiddlesticks_skin04_fiddlesticksrework_Pumpkinhead_Fiddlesticks_0"
    },
    {
      "children": [
        10
      ],
      "matrix": [
        1,
        0,
        0,
        0,
        0,
        1,
        0,
        0,
        0,
        0,
        1,
        0,
        12.998818397521973,
        108.36429595947266,
        -29.837062835693359,
        1
      ],
      "name": "stone_Mesh"
    },
    {
      "mesh": 3,
      "name": "stone_Mesh_Zombie_Brand_0"
    },
    {
      "children": [
        12
      ],
      "matrix": [
        0.45054671168327332,
        0,
        0,
        0,
        0,
        0.45054671168327332,
        0,
        0,
        0,
        0,
        0.45054671168327332,
        0,
        5.3249106407165527,
        0,
        0,
        1
      ],
      "name": "transformyorick"
    },
    {
      "mesh": 4,
      "name": "transformyorick_Yorick_0"
    },
    {
      "children": [
        14
      ],
      "matrix": [
        0.45187249844870225,
        -0.018725909240517619,
        -0.27461452275385473,
        0,
        -0.016536758647275461,
        0.5250791163813523,
        -0.063015932843242264,
        0,
        0.27475503889401787,
        0.062400420685906885,
        0.4478486426674223,
        0,
        -28.808744430541992,
        22.394306182861328,
        -65.184379577636719,
        1
      ],
      "name": "zyragrave_Mesh"
    },
    {
      "mesh": 5,
      "name": "zyragrave_Mesh_Haunted_Zyra_Plants_0"
    },
    {
      "children": [
        16
      ],
      "name": "transformmaokai_gravedigger2"
    },
    {
      "mesh": 6,
      "name": "transformmaokai_gravedigger2_Haunted_Maokai_0"
    },
    {
      "children": [
        18
      ],
      "name": "zyra_Mesh2"
    },
    {
      "mesh": 7,
      "name": "zyra_Mesh2_Haunted_Zyra_Vines_0"
    },
    {
      "children": [
        20
      ],
      "name": "Podium_only_Podium_only_Podium_Podium_pCylinder3"
    },
    {
      "mesh": 8,
      "name": "Podium_only_Podium_only_Podium_Podium_pCylinder3_Podium_0"
    }
  ],
  "samplers": [
    {
      "magFilter": 9729,
      "minFilter": 9987,
      "wrapS": 10497,
      "wrapT": 10497
    }
  ],
  "scene": 0,
  "scenes": [
    {
      "name": "OSG_Scene",
      "nodes": [
        0
      ]
    }
  ],
  "textures": [
    {
      "sampler": 0,
      "source": 0
    },
    {
      "sampler": 0,
      "source": 1
    },
    {
      "sampler": 0,
      "source": 2
    },
    {
      "sampler": 0,
      "source": 3
    },
    {
      "sampler": 0,
      "source": 4
    },
    {
      "sampler": 0,
      "source": 5
    },
    {
      "sampler": 0,
      "source": 6
    },
    {
      "sampler": 0,
      "source": 7
    },
    {
      "sampler": 0,
      "source": 8
    }
  ]
}

