{
  "accessors": [
    {
      "bufferView": 2,
      "componentType": 5126,
      "count": 5774,
      "max": [
        0.38062000274658203,
        1.8578699827194214,
        1.0791399478912354
      ],
      "min": [
        -0.57867002487182617,
        -0.0001900000061141327,
        -1.0863300561904907
      ],
      "type": "VEC3"
    },
    {
      "bufferView": 2,
      "byteOffset": 69288,
      "componentType": 5126,
      "count": 5774,
      "max": [
        0.99980801343917847,
        0.99959897994995117,
        0.99934905767440796
      ],
      "min": [
        -0.99990814924240112,
        -0.99999862909317017,
        -0.9999890923500061
      ],
      "type": "VEC3"
    },
    {
      "bufferView": 3,
      "componentType": 5126,
      "count": 5774,
      "max": [
        0.99852877855300903,
        0.99997150897979736,
        0.99940866231918335,
        1
      ],
      "min": [
        -0.9998403787612915,
        -0.99992263317108154,
        -0.99992084503173828,
        -1
      ],
      "type": "VEC4"
    },
    {
      "bufferView": 1,
      "componentType": 5126,
      "count": 5774,
      "max": [
        0.62115997076034546,
        0.6210399866104126
      ],
      "min": [
        0.010999999940395355,
        0.010820000432431698
      ],
      "type": "VEC2"
    },
    {
      "bufferView": 0,
      "componentType": 5125,
      "count": 26850,
      "max": [
        5773
      ],
      "min": [
        0
      ],
      "type": "SCALAR"
    },
    {
      "bufferView": 2,
      "byteOffset": 138576,
      "componentType": 5126,
      "count": 19929,
      "max": [
        0.53547000885009766,
        0.02759999968111515,
        0.66172999143600464
      ],
      "min": [
        -0.61830997467041016,
        -0.061480000615119934,
        -0.49204999208450317
      ],
      "type": "VEC3"
    },
    {
      "bufferView": 2,
      "byteOffset": 377724,
      "componentType": 5126,
      "count": 19929,
      "max": [
        0.99866324663162231,
        1,
        0.99866324663162231
      ],
      "min": [
        -0.99866324663162231,
        -1,
        -0.99866324663162231
      ],
      "type": "VEC3"
    },
    {
      "bufferView": 3,
      "byteOffset": 92384,
      "componentType": 5126,
      "count": 19929,
      "max": [
        1,
        0.11809868365526199,
        0.9999815821647644,
        1
      ],
      "min": [
        -0.99952918291091919,
        -0.11803864687681198,
        -0.99997293949127197,
        1
      ],
      "type": "VEC4"
    },
    {
      "bufferView": 1,
      "byteOffset": 46192,
      "componentType": 5126,
      "count": 19929,
      "max": [
        0.98685002326965332,
        0.97838997840881348
      ],
      "min": [
        0.051929999142885208,
        0.018659999594092369
      ],
      "type": "VEC2"
    },
    {
      "bufferView": 0,
      "byteOffset": 107400,
      "componentType": 5125,
      "count": 32256,
      "max": [
        19928
      ],
      "min": [
        0
      ],
      "type": "SCALAR"
    }
  ],
  "asset": {
    "extras": {
      "author": "itzkroxxxy (https://sketchfab.com/itzkroxxxy)",
      "license": "CC-BY-4.0 (http://creativecommons.org/licenses/by/4.0/)",
      "source": "https://sketchfab.com/models/e98a22cc8c7443dbb74817aee05aa799",
      "title": "Beast Hunter Draven"
    },
    "generator": "Sketchfab-3.20.7",
    "version": "2.0"
  },
  "bufferViews": [
    {
      "buffer": 0,
      "byteLength": 236424,
      "byteOffset": 0,
      "name": "floatBufferViews",
      "target": 34963
    },
    {
      "buffer": 0,
      "byteLength": 205624,
      "byteOffset": 236424,
      "byteStride": 8,
      "name": "floatBufferViews",
      "target": 34962
    },
    {
      "buffer": 0,
      "byteLength": 616872,
      "byteOffset": 442048,
      "byteStride": 12,
      "name": "floatBufferViews",
      "target": 34962
    },
    {
      "buffer": 0,
      "byteLength": 411248,
      "byteOffset": 1058920,
      "byteStride": 16,
      "name": "floatBufferViews",
      "target": 34962
    }
  ],
  "buffers": [
    {
      "byteLength": 1470168,
      "uri": "scene.bin"
    }
  ],
  "images": [
    {
      "uri": "textures/DefaultMaterial_baseColor.png"
    },
    {
      "uri": "textures/DefaultMaterial_metallicRoughness.png"
    },
    {
      "uri": "textures/wood_baseColor.png"
    },
    {
      "uri": "textures/wood_metallicRoughness.png"
    }
  ],
  "materials": [
    {
      "doubleSided": true,
      "emissiveFactor": [
        0,
        0,
        0
      ],
      "name": "DefaultMaterial",
      "pbrMetallicRoughness": {
        "baseColorFactor": [
          1,
          1,
          1,
          1
        ],
        "baseColorTexture": {
          "index": 0,
          "texCoord": 0
        },
        "metallicFactor": 1,
        "metallicRoughnessTexture": {
          "index": 1,
          "texCoord": 0
        },
        "roughnessFactor": 1
      }
    },
    {
      "doubleSided": true,
      "emissiveFactor": [
        0,
        0,
        0
      ],
      "name": "wood",
      "pbrMetallicRoughness": {
        "baseColorFactor": [
          1,
          1,
          1,
          1
        ],
        "baseColorTexture": {
          "index": 2,
          "texCoord": 0
        },
        "metallicFactor": 1,
        "metallicRoughnessTexture": {
          "index": 3,
          "texCoord": 0
        },
        "roughnessFactor": 0.59999999999999998
      }
    }
  ],
  "meshes": [
    {
      "name": "Model_Mesh_0",
      "primitives": [
        {
          "attributes": {
            "NORMAL": 1,
            "POSITION": 0,
            "TANGENT": 2,
            "TEXCOORD_0": 3
          },
          "indices": 4,
          "material": 0,
          "mode": 4
        }
      ]
    },
    {
      "name": "Model_Mesh_1",
      "primitives": [
        {
          "attributes": {
            "NORMAL": 6,
            "POSITION": 5,
            "TANGENT": 7,
            "TEXCOORD_0": 8
          },
          "indices": 9,
          "material": 1,
          "mode": 4
        }
      ]
    }
  ],
  "nodes": [
    {
      "children": [
        1
      ],
      "name": "RootNode (gltf orientation matrix)",
      "rotation": [
        -0.70710678118654746,
        -0,
        -0,
        0.70710678118654757
      ]
    },
    {
      "children": [
        2
      ],
      "name": "RootNode (model correction matrix)"
    },
    {
      "children": [
        3
      ],
      "name": "Root"
    },
    {
      "children": [
        4,
        5
      ],
      "matrix": [
        1,
        0,
        0,
        0,
        0,
        -0,
        1,
        0,
        0,
        -1,
        -0,
        0,
        0.041420000000000005,
        0.084840000000000013,
        0.061480000000000007,
        1
      ],
      "name": "Model_Mesh"
    },
    {
      "mesh": 0,
      "name": "Model_Mesh_0"
    },
    {
      "mesh": 1,
      "name": "Model_Mesh_1"
    }
  ],
  "samplers": [
    {
      "magFilter": 9729,
      "minFilter": 9987,
      "wrapS": 10497,
      "wrapT": 10497
    }
  ],
  "scene": 0,
  "scenes": [
    {
      "name": "OSG_Scene",
      "nodes": [
        0
      ]
    }
  ],
  "textures": [
    {
      "sampler": 0,
      "source": 0
    },
    {
      "sampler": 0,
      "source": 1
    },
    {
      "sampler": 0,
      "source": 2
    },
    {
      "sampler": 0,
      "source": 3
    }
  ]
}

