{
  "accessors": [
    {
      "bufferView": 2,
      "componentType": 5126,
      "count": 3085,
      "max": [
        -10.626583099365234,
        39.8397216796875,
        58.185642242431641
      ],
      "min": [
        -60.656211853027344,
        -36.418552398681641,
        2.9548079967498779
      ],
      "type": "VEC3"
    },
    {
      "bufferView": 2,
      "byteOffset": 37020,
      "componentType": 5126,
      "count": 3085,
      "max": [
        0.9982612133026123,
        0.99662536382675171,
        0.99986886978149414
      ],
      "min": [
        -0.99415063858032227,
        -0.99813336133956909,
        -0.99948978424072266
      ],
      "type": "VEC3"
    },
    {
      "bufferView": 3,
      "componentType": 5126,
      "count": 3085,
      "max": [
        0.99954164028167725,
        0.99355721473693848,
        0.99922960996627808,
        1
      ],
      "min": [
        -0.9901878833770752,
        -0.99948722124099731,
        -0.99882268905639648,
        -1
      ],
      "type": "VEC4"
    },
    {
      "bufferView": 1,
      "componentType": 5126,
      "count": 3085,
      "max": [
        0.99012100696563721,
        0.99383097887039185
      ],
      "min": [
        0.0087160002440214157,
        0.0057760002091526985
      ],
      "type": "VEC2"
    },
    {
      "bufferView": 0,
      "componentType": 5125,
      "count": 7050,
      "max": [
        3084
      ],
      "min": [
        0
      ],
      "type": "SCALAR"
    },
    {
      "bufferView": 2,
      "byteOffset": 74040,
      "componentType": 5126,
      "count": 12798,
      "max": [
        42.959182739257812,
        47.248641967773438,
        91.21246337890625
      ],
      "min": [
        -34.067718505859375,
        -43.574714660644531,
        0.0030159999150782824
      ],
      "type": "VEC3"
    },
    {
      "bufferView": 2,
      "byteOffset": 227616,
      "componentType": 5126,
      "count": 12798,
      "max": [
        0.99999749660491943,
        0.99996286630630493,
        0.99967825412750244
      ],
      "min": [
        -0.99921154975891113,
        -0.99998533725738525,
        -1
      ],
      "type": "VEC3"
    },
    {
      "bufferView": 3,
      "byteOffset": 49360,
      "componentType": 5126,
      "count": 12798,
      "max": [
        0.99990665912628174,
        0.99998199939727783,
        0.9995465874671936,
        1
      ],
      "min": [
        -0.99997603893280029,
        -0.99982070922851562,
        -0.99866360425949097,
        -1
      ],
      "type": "VEC4"
    },
    {
      "bufferView": 1,
      "byteOffset": 24680,
      "componentType": 5126,
      "count": 12798,
      "max": [
        0.99810600280761719,
        0.99694299697875977
      ],
      "min": [
        0.003840999910607934,
        0.0022319999989122152
      ],
      "type": "VEC2"
    },
    {
      "bufferView": 0,
      "byteOffset": 28200,
      "componentType": 5125,
      "count": 39768,
      "max": [
        12797
      ],
      "min": [
        0
      ],
      "type": "SCALAR"
    }
  ],
  "asset": {
    "extras": {
      "author": "Dylan Hall (https://sketchfab.com/HowlingCarnage)",
      "license": "CC-BY-4.0 (http://creativecommons.org/licenses/by/4.0/)",
      "source": "https://sketchfab.com/models/42285ed5d6ae427db6be850750863ee9",
      "title": "Mordekaiser Visual Update - Riot Contest 2017"
    },
    "generator": "Sketchfab-3.19.4",
    "version": "2.0"
  },
  "bufferViews": [
    {
      "buffer": 0,
      "byteLength": 187272,
      "byteOffset": 0,
      "name": "floatBufferViews",
      "target": 34963
    },
    {
      "buffer": 0,
      "byteLength": 127064,
      "byteOffset": 187272,
      "byteStride": 8,
      "name": "floatBufferViews",
      "target": 34962
    },
    {
      "buffer": 0,
      "byteLength": 381192,
      "byteOffset": 314336,
      "byteStride": 12,
      "name": "floatBufferViews",
      "target": 34962
    },
    {
      "buffer": 0,
      "byteLength": 254128,
      "byteOffset": 695528,
      "byteStride": 16,
      "name": "floatBufferViews",
      "target": 34962
    }
  ],
  "buffers": [
    {
      "byteLength": 949656,
      "uri": "scene.bin"
    }
  ],
  "extensionsUsed": [
    "KHR_materials_unlit"
  ],
  "images": [
    {
      "uri": "textures/MordePose3MeshSG1_baseColor.png"
    },
    {
      "uri": "textures/MordePose3MeshSG_baseColor.png"
    }
  ],
  "materials": [
    {
      "alphaMode": "BLEND",
      "doubleSided": true,
      "extensions": {
        "KHR_materials_unlit": {}
      },
      "name": "MordePose3MeshSG",
      "pbrMetallicRoughness": {
        "baseColorFactor": [
          1,
          1,
          1,
          1
        ],
        "baseColorTexture": {
          "index": 1,
          "texCoord": 0
        },
        "metallicFactor": 0,
        "roughnessFactor": 1
      }
    },
    {
      "alphaMode": "BLEND",
      "doubleSided": true,
      "emissiveFactor": [
        0,
        0,
        0
      ],
      "extensions": {
        "KHR_materials_unlit": {}
      },
      "name": "MordePose3MeshSG1",
      "pbrMetallicRoughness": {
        "baseColorFactor": [
          1,
          1,
          1,
          1
        ],
        "baseColorTexture": {
          "index": 0,
          "texCoord": 0
        },
        "metallicFactor": 0,
        "roughnessFactor": 1
      }
    }
  ],
  "meshes": [
    {
      "primitives": [
        {
          "attributes": {
            "NORMAL": 1,
            "POSITION": 0,
            "TANGENT": 2,
            "TEXCOORD_0": 3
          },
          "indices": 4,
          "material": 0,
          "mode": 4
        }
      ]
    },
    {
      "primitives": [
        {
          "attributes": {
            "NORMAL": 6,
            "POSITION": 5,
            "TANGENT": 7,
            "TEXCOORD_0": 8
          },
          "indices": 9,
          "material": 1,
          "mode": 4
        }
      ]
    }
  ],
  "nodes": [
    {
      "children": [
        1
      ],
      "name": "RootNode (gltf orientation matrix)",
      "rotation": [
        -0.70710678118654746,
        -0,
        -0,
        0.70710678118654757
      ]
    },
    {
      "children": [
        2
      ],
      "name": "RootNode (model correction matrix)"
    },
    {
      "children": [
        3,
        4
      ],
      "name": "Mordekaiser.obj.cleaner.materialmerger.gles"
    },
    {
      "mesh": 0,
      "name": ""
    },
    {
      "mesh": 1,
      "name": ""
    }
  ],
  "samplers": [
    {
      "magFilter": 9729,
      "minFilter": 9987,
      "wrapS": 10497,
      "wrapT": 10497
    }
  ],
  "scene": 0,
  "scenes": [
    {
      "name": "OSG_Scene",
      "nodes": [
        0
      ]
    }
  ],
  "textures": [
    {
      "sampler": 0,
      "source": 0
    },
    {
      "sampler": 0,
      "source": 1
    }
  ]
}

